<?xml version="1.0" encoding="utf-8"?>
<!-- Generator: Adobe Illustrator 19.0.0, SVG Export Plug-In . SVG Version: 6.00 Build 0)  -->
<svg version="1.1" id="Layer_1" xmlns="http://www.w3.org/2000/svg" xmlns:xlink="http://www.w3.org/1999/xlink" x="0px" y="0px"
	 viewBox="-243 245 512 512" style="enable-background:new -243 245 512 512;" xml:space="preserve">
<style type="text/css">
	.st0{fill:#FF1659;}
</style>
<g>
	<path class="st0" d="M125,477.2V261c0-4.4-3.6-8-8-8h-336c-4.4,0-8,3.6-8,8v480c0,4.4,3.6,8,8,8h336c75,0,136-61,136-136
		C253,540.7,196.3,481.4,125,477.2z M-211,733V269h320v208.2C37.7,481.4-19,540.7-19,613c0,50.2,27.7,96.4,72.1,120H-211z M117,733
		C50.7,733-3,679.3-3,613s53.7-120,120-120s120,53.7,120,120C236.9,679.2,183.2,732.9,117,733z"/>
	<path class="st0" d="M117,501C55.1,501,5,551.1,5,613s50.1,112,112,112s112-50.1,112-112C228.9,551.2,178.8,501.1,117,501z
		 M117,709c-53,0-96-43-96-96s43-96,96-96s96,43,96,96C212.9,666,170,708.9,117,709z"/>
	<path class="st0" d="M150.7,635.3l-12-12c1.6-3.2,2.4-6.8,2.4-10.3c0-10.2-6.4-19.2-16-22.6V549c0-4.4-3.6-8-8-8s-8,3.6-8,8v41.4
		c-12.5,4.4-19,18.1-14.6,30.6c3.4,9.6,12.4,16,22.6,16c3.6,0,7.1-0.8,10.3-2.3l12,12c3.1,3.1,8.2,3.1,11.3,0
		C153.8,643.5,153.8,638.5,150.7,635.3z M117,621c-4.4,0-8-3.6-8-8s3.6-8,8-8c4.4,0,8,3.6,8,8S121.4,621,117,621z"/>
	<path class="st0" d="M-187,357H85c4.4,0,8-3.6,8-8v-56c0-4.4-3.6-8-8-8h-272c-4.4,0-8,3.6-8,8v56C-195,353.4-191.4,357-187,357z
		 M-179,301H77v40h-256V301z"/>
	<path class="st0" d="M-139,373h-48c-4.4,0-8,3.6-8,8v48c0,4.4,3.6,8,8,8h48c4.4,0,8-3.6,8-8v-48C-131,376.6-134.6,373-139,373z
		 M-147,421h-32v-32h32V421z"/>
	<path class="st0" d="M85,373h-192c-4.4,0-8,3.6-8,8s3.6,8,8,8H85c4.4,0,8-3.6,8-8S89.4,373,85,373z"/>
	<path class="st0" d="M85,397h-192c-4.4,0-8,3.6-8,8s3.6,8,8,8H85c4.4,0,8-3.6,8-8S89.4,397,85,397z"/>
	<path class="st0" d="M-107,437h96c4.4,0,8-3.6,8-8s-3.6-8-8-8h-96c-4.4,0-8,3.6-8,8S-111.4,437-107,437z"/>
	<path class="st0" d="M-139,453h-48c-4.4,0-8,3.6-8,8v48c0,4.4,3.6,8,8,8h48c4.4,0,8-3.6,8-8v-48C-131,456.6-134.6,453-139,453z
		 M-147,501h-32v-32h32V501z"/>
	<path class="st0" d="M53,453h-160c-4.4,0-8,3.6-8,8s3.6,8,8,8H53c4.4,0,8-3.6,8-8S57.4,453,53,453z"/>
	<path class="st0" d="M-11,477h-96c-4.4,0-8,3.6-8,8s3.6,8,8,8h96c4.4,0,8-3.6,8-8S-6.6,477-11,477z"/>
	<path class="st0" d="M-11,501h-96c-4.4,0-8,3.6-8,8c0,4.4,3.6,8,8,8h96c4.4,0,8-3.6,8-8S-6.6,501-11,501z"/>
	<path class="st0" d="M-139,541h-48c-4.4,0-8,3.6-8,8v48c0,4.4,3.6,8,8,8h48c4.4,0,8-3.6,8-8v-48C-131,544.6-134.6,541-139,541z
		 M-147,589h-32v-32h32V589z"/>
	<path class="st0" d="M-43,541h-64c-4.4,0-8,3.6-8,8s3.6,8,8,8h64c4.4,0,8-3.6,8-8S-38.6,541-43,541z"/>
	<path class="st0" d="M-43,565h-64c-4.4,0-8,3.6-8,8s3.6,8,8,8h64c4.4,0,8-3.6,8-8S-38.6,565-43,565z"/>
	<path class="st0" d="M-43,589h-64c-4.4,0-8,3.6-8,8s3.6,8,8,8h64c4.4,0,8-3.6,8-8S-38.6,589-43,589z"/>
	<path class="st0" d="M21,437c4.4,0,8-3.6,8-8s-3.6-8-8-8h-8c-4.4,0-8,3.6-8,8s3.6,8,8,8H21z"/>
</g>
</svg>
