<?xml version="1.0" encoding="utf-8"?>
<!-- Generator: Adobe Illustrator 22.1.0, SVG Export Plug-In . SVG Version: 6.00 Build 0)  -->
<svg version="1.1" id="Capa_1" xmlns="http://www.w3.org/2000/svg" xmlns:xlink="http://www.w3.org/1999/xlink" x="0px" y="0px"
	 viewBox="0 0 512 512" style="enable-background:new 0 0 512 512;" xml:space="preserve">
<style type="text/css">
	.st0{fill:#FF1659;}
</style>
<g id="XMLID_1371_">
	<g id="XMLID_174_">
		<path id="XMLID_175_" class="st0" d="M405.7,60.5c3.2-4.5,2.1-10.8-2.4-13.9C360,16.1,309.1,0,256,0c-33.2,0-65.6,6.3-96.1,18.6
			c-5.1,2.1-7.6,7.9-5.5,13c2.1,5.1,7.9,7.6,13,5.5C195.6,25.8,225.4,20,256,20c48.9,0,95.9,14.8,135.7,42.9
			c1.8,1.2,3.8,1.8,5.7,1.8C400.6,64.7,403.7,63.3,405.7,60.5L405.7,60.5z"/>
		<path id="XMLID_216_" class="st0" d="M512,256c0-51.2-15-100.6-43.5-142.8c-3.1-4.6-9.3-5.8-13.9-2.7c-4.6,3.1-5.8,9.3-2.7,13.9
			c26.2,39,40.1,84.5,40.1,131.7c0,50.2-15.4,97.7-44.6,138c-4.8-2.2-10.1-3.4-15.7-3.4c-21,0-38,17-38,38s17,38,38,38s38-17,38-38
			c0-8.1-2.6-15.6-6.9-21.8C495,362.9,512,310.9,512,256L512,256z M431.8,446.6c-9.9,0-18-8.1-18-18s8.1-18,18-18s18,8.1,18,18
			S441.7,446.6,431.8,446.6z"/>
		<path id="XMLID_219_" class="st0" d="M344.6,474.8C316.4,486.2,286.6,492,256,492C125.9,492,20,386.1,20,256
			c0-50.2,15.4-97.7,44.6-138c4.8,2.2,10.1,3.4,15.7,3.4c21,0,38-17,38-38s-17-38-38-38s-38,17-38,38c0,8.1,2.6,15.6,6.9,21.8
			C17,149.1,0,201.1,0,256c0,68.4,26.6,132.7,75,181c48.4,48.4,112.6,75,181,75c33.2,0,65.6-6.3,96.1-18.6c5.1-2.1,7.6-7.9,5.5-13
			C355.5,475.2,349.7,472.7,344.6,474.8L344.6,474.8z M80.2,65.4c9.9,0,18,8.1,18,18s-8.1,18-18,18s-18-8.1-18-18
			S70.3,65.4,80.2,65.4z"/>
		<path id="XMLID_222_" class="st0" d="M256,233.8c-21.1,0-38.3,17.2-38.3,38.3c0,8.8,2.9,17.1,8.3,23.8v29.9c0,16.5,13.5,30,30,30
			s30-13.5,30-30v-29.9c5.4-6.7,8.3-15.1,8.3-23.8C294.3,250.9,277.1,233.8,256,233.8L256,233.8z M268.9,285
			c-1.9,1.9-2.9,4.4-2.9,7.1v33.7c0,5.5-4.5,10-10,10s-10-4.5-10-10v-33.7c0-2.7-1.1-5.2-2.9-7.1c-3.5-3.5-5.4-8-5.4-12.9
			c0-10.1,8.2-18.3,18.3-18.3s18.3,8.2,18.3,18.3C274.3,277,272.4,281.5,268.9,285z"/>
		<path id="XMLID_225_" class="st0" d="M348,195.6v-20.5c0-50.7-41.2-92-92-92s-92,41.2-92,92v20.5c-12.9,5.5-22,18.4-22,33.3v131.7
			c0,19.9,16.2,36.2,36.2,36.2h155.7c19.9,0,36.2-16.2,36.2-36.2V228.9C370,214,360.9,201.1,348,195.6z M184,175.1
			c0-39.7,32.3-72,72-72s72,32.3,72,72v17.6h-21v-17.6c0-28.1-22.9-51-51-51s-51,22.9-51,51v17.6h-21L184,175.1L184,175.1z
			 M225,192.8v-17.6c0-17.1,13.9-31,31-31s31,13.9,31,31v17.6H225z M350,360.6c0,8.9-7.3,16.2-16.2,16.2H178.2
			c-8.9,0-16.2-7.3-16.2-16.2V228.9c0-8.9,7.3-16.2,16.2-16.2h155.7c8.9,0,16.2,7.3,16.2,16.2V360.6z"/>
		<path id="XMLID_233_" class="st0" d="M431.8,93.9c2.6,0,5.2-1.1,7.1-2.9c1.9-1.9,2.9-4.4,2.9-7.1c0-2.6-1.1-5.2-2.9-7.1
			s-4.4-2.9-7.1-2.9c-2.6,0-5.2,1.1-7.1,2.9c-1.9,1.9-2.9,4.4-2.9,7.1c0,2.6,1.1,5.2,2.9,7.1C426.5,92.8,429.1,93.9,431.8,93.9z"/>
	</g>
</g>
<polygon class="st0" points="142,363.2 175.5,396.6 142,396.6 "/>
<polygon class="st0" points="336.5,396.6 370,363.2 370,396.6 "/>
<polygon class="st0" points="370,226.2 336.5,192.8 370,192.8 "/>
<polygon class="st0" points="175.5,192.8 142,226.2 142,192.8 "/>
</svg>
