<?xml version="1.0" encoding="utf-8"?>
<!-- Generator: Adobe Illustrator 19.0.0, SVG Export Plug-In . SVG Version: 6.00 Build 0)  -->
<svg version="1.1" id="Capa_1" xmlns="http://www.w3.org/2000/svg" xmlns:xlink="http://www.w3.org/1999/xlink" x="0px" y="0px"
	 viewBox="-243 245 512 512" style="enable-background:new -243 245 512 512;" xml:space="preserve">
<style type="text/css">
	.st0{fill:#FF1659;}
</style>
<g>
	<circle class="st0" cx="179" cy="687" r="10"/>
	<circle class="st0" cx="159" cy="647" r="10"/>
	<circle class="st0" cx="-133" cy="647" r="10"/>
	<circle class="st0" cx="-153" cy="687" r="10"/>
	<path class="st0" d="M-233,657c-5.5,0-10,4.5-10,10s4.5,10,10,10h10.7c1.7,11.6,6.2,22.5,13.2,31.9l-7.6,7.6
		c-3.9,3.9-3.9,10.2,0,14.1s10.2,3.9,14.1,0l7.6-7.6c9.4,7,20.3,11.6,31.9,13.2V747c0,5.5,4.5,10,10,10s10-4.5,10-10v-10.7
		c11.6-1.7,22.5-6.2,31.9-13.2l7.6,7.6c3.9,3.9,10.2,3.9,14.1,0s3.9-10.2,0-14.1l-7.6-7.6c7-9.4,11.6-20.3,13.2-31.9H-73
		c5.5,0,10-4.5,10-10s-4.5-10-10-10h-10.7c-1.7-11.6-6.2-22.5-13.2-31.9l7.6-7.6c3.9-3.9,3.9-10.2,0-14.1s-10.2-3.9-14.1,0l-7.6,7.6
		c-9.4-7-20.3-11.6-31.9-13.2V587c0-5.5-4.5-10-10-10s-10,4.5-10,10v10.7c-11.6,1.7-22.5,6.2-31.9,13.2l-7.6-7.6
		c-3.9-3.9-10.2-3.9-14.1,0s-3.9,10.2,0,14.1l7.6,7.6c-7,9.4-11.6,20.3-13.2,31.9L-233,657L-233,657z M-153,617
		c27.7,0,50,22.4,50,50s-22.3,50-50,50s-50-22.4-50-50S-180.7,617-153,617z"/>
	<path class="st0" d="M259,657h-10.7c-1.7-11.6-6.2-22.5-13.2-31.9l7.6-7.6c3.9-3.9,3.9-10.2,0-14.1c-3.9-3.9-10.2-3.9-14.1,0
		L221,611c-9.4-7-20.3-11.6-31.9-13.2V587c0-5.5-4.5-10-10-10s-10,4.5-10,10v10.7c-11.6,1.7-22.5,6.2-31.9,13.2l-7.6-7.6
		c-3.9-3.9-10.2-3.9-14.1,0s-3.9,10.2,0,14.1l7.6,7.6c-7,9.4-11.6,20.3-13.2,31.9H99c-5.5,0-10,4.5-10,10s4.5,10,10,10h10.7
		c1.7,11.6,6.2,22.5,13.2,31.9l-7.6,7.6c-3.9,3.9-3.9,10.2,0,14.1s10.2,3.9,14.1,0l7.6-7.6c9.4,7,20.3,11.6,31.9,13.2V747
		c0,5.5,4.5,10,10,10s10-4.5,10-10v-10.7c11.6-1.7,22.5-6.2,31.9-13.2l7.6,7.6c3.9,3.9,10.2,3.9,14.1,0c3.9-3.9,3.9-10.2,0-14.1
		l-7.6-7.6c7-9.4,11.6-20.3,13.2-31.9H259c5.5,0,10-4.5,10-10S264.5,657,259,657L259,657z M179,717c-27.7,0-50-22.4-50-50
		s22.3-50,50-50s50,22.4,50,50S206.7,717,179,717z"/>
	<path class="st0" d="M123,333.1c0-5.1-3.8-9.4-8.9-9.9c-33.9-3.9-66.4-14.1-96.4-30.4c-3-1.6-6.5-1.6-9.5,0
		c-30,16.2-62.5,26.5-96.4,30.4c-5,0.6-8.9,4.9-8.9,9.9v102.2c0,67.9,42.8,129.3,106.5,152.9c1.1,0.4,2.3,0.6,3.5,0.6
		s2.4-0.2,3.5-0.6c63.7-23.6,106.5-85,106.5-152.9L123,333.1z M103,435.4c0,58.3-36,111.2-90,132.8c-54-21.6-90-74.5-90-132.8v-93.5
		c31.5-4.6,61.7-14.3,90-29c28.3,14.6,58.5,24.4,90,29V435.4z"/>
	<path class="st0" d="M-47,491v10c0,5.5,4.5,10,10,10H63c5.5,0,10-4.5,10-10v-10c0-33.1-26.9-60-60-60S-47,457.9-47,491z M13,451
		c22.1,0,40,17.9,40,40h-80C-27,468.9-9.1,451,13,451z"/>
	<path class="st0" d="M-27,391c0,22.1,17.9,40,40,40s40-17.9,40-40s-17.9-40-40-40S-27,368.9-27,391z M33,391c0,11-9,20-20,20
		s-20-9-20-20s9-20,20-20S33,380,33,391z"/>
	<path class="st0" d="M251.9,419.9l-80,80c-1.9,1.9-2.9,4.4-2.9,7.1v40c0,5.5,4.5,10,10,10s10-4.5,10-10v-35.9l77.1-77.1
		c3.9-3.9,3.9-10.2,0-14.1S255.8,416,251.9,419.9z"/>
	<path class="st0" d="M-240.1,434.1l77.1,77.1V547c0,5.5,4.5,10,10,10s10-4.5,10-10v-40c0-2.7-1.1-5.2-2.9-7.1l-80-80
		c-3.9-3.9-10.2-3.9-14.1,0C-244,423.8-244,430.2-240.1,434.1z"/>
	<circle class="st0" cx="115" cy="551" r="10"/>
	<path class="st0" d="M128,507.9c-2.2,5.1,0.1,11,5.2,13.1c5.1,2.2,11-0.1,13.1-5.2c11-25.5,16.6-52.6,16.6-80.4V295
		c0-5.5-4.5-10-10-10H145c-45.2,0-89-13.3-126.6-38.3c-3.4-2.2-7.7-2.2-11.1,0c-37.5,25-81.2,38.3-126.4,38.3h-7.9
		c-5.5,0-10,4.5-10,10v140.4c0,89.6,59,170,147.3,195.2c0.9,0.3,1.8,0.4,2.7,0.4s1.9-0.1,2.7-0.4c27.5-7.9,52.6-21.2,74.5-39.5
		c4.2-3.5,4.8-9.9,1.2-14.1c-3.5-4.2-9.9-4.8-14.1-1.2c-19,15.9-40.7,27.6-64.4,34.8c-76.7-23.2-130-94.9-130-175.2V305
		c46.2-0.4,91-13.5,130-38.1c39,24.6,83.8,37.7,130,38.1v130.4C143,460.5,138,484.9,128,507.9L128,507.9z"/>
</g>
</svg>
