<?xml version="1.0" encoding="utf-8"?>
<!-- Generator: Adobe Illustrator 22.1.0, SVG Export Plug-In . SVG Version: 6.00 Build 0)  -->
<svg version="1.1" id="Capa_1" xmlns="http://www.w3.org/2000/svg" xmlns:xlink="http://www.w3.org/1999/xlink" x="0px" y="0px"
	 viewBox="0 0 442 442" style="enable-background:new 0 0 442 442;" xml:space="preserve">
<style type="text/css">
	.st0{fill:#FF1659;}
</style>
<path class="st0" d="M442,360.8V81.2c0-5.2-2-9.9-5.2-13.4c0-0.1-0.1-0.1-0.2-0.2c-3.7-3.9-8.8-6.4-14.6-6.4H20
	c-5.8,0-10.9,2.5-14.6,6.4c-0.1,0.1-0.1,0.1-0.2,0.2C2,71.4,0,76.1,0,81.2v279.5c0,5.2,2,9.9,5.2,13.4c0,0.1,0.1,0.1,0.1,0.2
	c3.7,3.9,8.9,6.4,14.6,6.4h402c5.8,0,11-2.5,14.6-6.4c0.1-0.1,0.1-0.1,0.2-0.2C440,370.6,442,365.9,442,360.8z M98,279.1
	c-4-3.8-10.3-3.7-14.1,0.3L20,345.9V96.1L139.9,221l-32.4,33.7c-3.8,4-3.7,10.3,0.3,14.1c1.9,1.9,4.4,2.8,6.9,2.8
	c2.6,0,5.3-1,7.2-3.1l31.8-33.2l46.1,48.1c5.6,5.8,13.1,9,21.1,9s15.5-3.2,21.1-9l46.1-48.1l120.3,125.3H33.5l64.9-67.6
	C102.2,289.2,102,282.9,98,279.1z M227.6,269.6c-1.8,1.9-4.1,2.9-6.6,2.9s-4.9-1-6.6-2.9L33.5,81.2h375.1L227.6,269.6z M302.1,221
	L422,96.1l0,249.8L302.1,221z"/>
<rect y="61.3" class="st0" width="22.2" height="20"/>
<rect y="360.8" class="st0" width="22.2" height="20"/>
<rect x="419.8" y="360.8" class="st0" width="22.2" height="20"/>
<rect x="419.8" y="61.3" class="st0" width="22.2" height="20"/>
</svg>
