<?xml version="1.0" encoding="utf-8"?>
<!-- Generator: Adobe Illustrator 19.0.0, SVG Export Plug-In . SVG Version: 6.00 Build 0)  -->
<svg version="1.1" id="Layer_1" xmlns="http://www.w3.org/2000/svg" xmlns:xlink="http://www.w3.org/1999/xlink" x="0px" y="0px"
	 viewBox="-243 245 512 512" style="enable-background:new -243 245 512 512;" xml:space="preserve">
<style type="text/css">
	.st0{fill:#FF1659;}
</style>
<g id="Layer_14">
	<path class="st0" d="M-31,613v-64c0-13.3-10.7-24-24-24s-24,10.7-24,24v64c-17.6,13.3-21.1,38.4-7.8,56
		c5.5,7.3,13.4,12.5,22.3,14.7c3.1,0.8,6.3,1.2,9.5,1.3c22.1,0,40-17.9,40-40C-15,632.4-20.9,620.6-31,613z M-40.1,663.6
		c-10.1,8.6-25.2,7.4-33.8-2.7s-7.4-25.2,2.7-33.8c1.3-1.1,2.7-2.1,4.2-2.9c2.5-1.4,4-4.1,4-7V549c0-4.4,3.6-8,8-8s8,3.6,8,8v68.4
		c0,2.9,1.5,5.5,4,7c11.4,6.7,15.3,21.4,8.6,32.8c-1.5,2.5-3.4,4.8-5.7,6.6C-40.1,663.8-40.1,663.6-40.1,663.6z"/>
	<path class="st0" d="M250.8,549l-26.5-5.8c-26.7-6.1-49.9-22.9-64-46.4c-2.3-3.8-7.2-5.1-11-2.8c-1.2,0.7-2.1,1.6-2.8,2.8
		c-9.9,16.4-24.3,29.6-41.5,38.1V501c0-15.9-9.4-30.3-24-36.6V389c0-75.1-60.9-136-136-136s-136,60.9-136,136v75.4
		c-14.6,6.4-24,20.7-24,36.6v24h-8c-4.4,0-8,3.6-8,8v144c0,4.4,3.6,8,8,8h8v24c0,22.1,17.9,40,40,40H65c22.1,0,40-17.9,40-40v-1
		c11,12.8,23.3,24.5,36.8,34.6l6.4,4.8c2.8,2.1,6.8,2.1,9.6,0l6.4-4.8C222.5,698.7,256.8,630,257,557
		C257.1,553.2,254.5,549.8,250.8,549z M-175,389c0-66.3,53.7-120,120-120S65,322.7,65,389v72H33v-72c0-48.6-39.4-88-88-88
		s-88,39.4-88,88v72h-32V389z M17,461h-144v-72c0-39.8,32.2-72,72-72s72,32.2,72,72V461z M-135,541v32h-80v-32H-135z M-215,669v-32
		h80v32H-215z M-135,621h-80v-32h80V621z M89,709c0,13.3-10.7,24-24,24l0,0h-240c-13.3,0-24-10.7-24-24l0,0v-24h72c4.4,0,8-3.6,8-8
		V533c0-4.4-3.6-8-8-8h-72v-24c0-13.3,10.7-24,24-24H65c13.3,0,24,10.7,24,24v40c-2.4,0.7-4.8,1.4-7.3,2l-26.5,6
		c-3.7,0.8-6.3,4.2-6.2,8c0.1,46.3,14.1,91.5,40,129.9V709z M154.6,729.8L153,731l-1.6-1.2C98.9,690.3,67.1,629.1,65,563.4l20.1-4.5
		c27.1-6,51.2-21.5,67.9-43.6c16.7,22.1,40.8,37.6,67.8,43.6l20.2,4.5C238.9,629.1,207.1,690.3,154.6,729.8z"/>
	<path class="st0" d="M200.1,568.6l-14.2-7.2l-5.4,10.8c-27-15.9-61.7-7-77.7,20c-15.9,27-7,61.7,20,77.7c27,15.9,61.7,7,77.7-20
		c12.8-21.7,9.8-49.2-7.4-67.6L200.1,568.6z M193,621c0.2,22.3-17.7,40.6-40,40.8s-40.6-17.7-40.8-40c-0.2-22.3,17.7-40.6,40-40.8
		c7.4-0.1,14.7,1.9,21,5.7l-21.6,43.2l-16-21.7l-12.8,9.6l24,32c1.5,2,3.9,3.2,6.4,3.2h0.7c2.7-0.3,5.2-1.9,6.4-4.4l25.4-50.7
		C190.5,604.6,193.1,612.7,193,621z"/>
</g>
</svg>
