<?xml version="1.0" encoding="utf-8"?>
<!-- Generator: Adobe Illustrator 23.1.1, SVG Export Plug-In . SVG Version: 6.00 Build 0)  -->
<svg version="1.1" id="Layer_1" xmlns="http://www.w3.org/2000/svg" xmlns:xlink="http://www.w3.org/1999/xlink" x="0px" y="0px"
	 viewBox="0 0 414 414" style="enable-background:new 0 0 414 414;" xml:space="preserve">
<style type="text/css">
	.st0{fill:#FFFFFF;}
	.st1{fill:#FF1659;}
	.st2{fill:#FD919E;}
	.st3{fill:#7A1827;}
</style>
<path class="st0" d="M300.4,60H48.3c-15.9,0-28.8,12.9-28.8,28.8v156.7h309.7V88.7C329.1,72.8,316.3,60,300.4,60z"/>
<path class="st1" d="M300.4,281.4H48.3c-19.8,0-36-16.2-36-36V88.7c0-19.8,16.2-36,36-36h252.1c19.8,0,36,16.2,36,36v156.7
	C336.4,265.3,320.2,281.4,300.4,281.4z M48.3,67.2c-11.8,0-21.5,9.7-21.5,21.5v156.7c0,11.8,9.7,21.5,21.5,21.5h252.1
	c11.8,0,21.5-9.7,21.5-21.5V88.7c0-11.8-9.7-21.5-21.5-21.5H48.3z"/>
<path class="st1" d="M329.1,252.7H19.6c-4,0-7.2-3.2-7.2-7.2V88.7c0-19.8,16.2-36,36-36h252.1c19.8,0,36,16.2,36,36v156.7
	C336.4,249.4,333.1,252.7,329.1,252.7z M26.8,238.1h295.1V88.7c0-11.8-9.7-21.5-21.5-21.5H48.3c-11.8,0-21.5,9.7-21.5,21.5
	L26.8,238.1L26.8,238.1z"/>
<path class="st1" d="M196.7,325.9h-44.6c-4,0-7.2-3.2-7.2-7.2v-44.5c0-4,3.2-7.2,7.2-7.2h44.5c4,0,7.2,3.2,7.2,7.2v44.5
	C203.9,322.7,200.6,325.9,196.7,325.9z M159.4,311.5h30.1v-30.1h-30.1V311.5z"/>
<path class="st1" d="M230.7,357.3H118c-4,0-7.2-3.2-7.2-7.2v-21.2c0-9.6,7.9-17.5,17.5-17.5h92.4c9.6,0,17.5,7.8,17.5,17.5V350
	C238,354,234.7,357.3,230.7,357.3z M125.2,342.8h98.2v-13.9c0-1.6-1.3-2.9-2.9-2.9h-92.4c-1.6,0-2.9,1.3-2.9,2.9V342.8z"/>
<path class="st2" d="M380.2,354h-102c-7.9,0-14.3-6.4-14.3-14.3V166.9c0-7.9,6.4-14.3,14.3-14.3h102c7.9,0,14.3,6.4,14.3,14.3v172.9
	C394.4,347.7,388.1,354,380.2,354z"/>
<path class="st3" d="M337.5,336.1c0,4.6-3.8,8.4-8.4,8.4c-4.6,0-8.4-3.8-8.4-8.4c0-4.6,3.8-8.4,8.4-8.4
	C333.8,327.7,337.5,331.5,337.5,336.1z"/>
<path class="st0" d="M263.9,179.5h130.6v138.7H263.9V179.5z"/>
<path class="st1" d="M380.2,361.4h-102c-11.8,0-21.5-9.7-21.5-21.5V166.9c0-11.8,9.7-21.5,21.5-21.5h102c11.8,0,21.5,9.7,21.5,21.5
	v172.9C401.7,351.7,392.1,361.4,380.2,361.4z M278.2,159.9c-3.9,0-7,3.1-7,7v172.9c0,3.9,3.1,7,7,7h102c3.9,0,7-3.1,7-7V166.9
	c0-3.9-3.1-7-7-7H278.2z"/>
<path class="st1" d="M394.4,325.6H263.9c-4,0-7.2-3.2-7.2-7.2V179.5c0-4,3.2-7.2,7.2-7.2h130.6c4,0,7.2,3.2,7.2,7.2v138.7
	C401.7,322.4,398.4,325.6,394.4,325.6z M271.1,311.1h116.1V186.7H271.1V311.1z"/>
<g>
	<path class="st1" d="M122.1,165.2c-4,0-7.2-3.2-7.2-7.2c0-32.9,26.7-59.5,59.5-59.5c4,0,7.2,3.2,7.2,7.2s-3.2,7.2-7.2,7.2
		c-24.8,0-45,20.1-45,45C129.3,162,126.1,165.2,122.1,165.2z"/>
	<path class="st1" d="M174.4,217.4c-4,0-7.2-3.2-7.2-7.2c0-4,3.2-7.2,7.2-7.2c24.8,0,45-20.1,45-45c0-4,3.2-7.2,7.2-7.2
		c4,0,7.2,3.2,7.2,7.2C233.8,190.7,207.2,217.4,174.4,217.4z"/>
	<path class="st1" d="M122.1,199.1c-2.4,0-4.5-1.1-5.9-3l-24.3-34c-1.6-2.2-1.8-5.1-0.5-7.5c1.3-2.4,3.8-3.9,6.5-3.9h48.6
		c2.7,0,5.2,1.5,6.5,3.9c1.3,2.4,1.1,5.3-0.5,7.5l-24.3,34C126.6,198.1,124.5,199.1,122.1,199.1z M111.9,165.2l10.2,14.3l10.2-14.3
		H111.9z"/>
	<path class="st1" d="M250.9,165.2h-48.6c-2.7,0-5.2-1.5-6.5-3.9c-1.3-2.4-1.1-5.3,0.5-7.5l24.3-34c1.4-1.9,3.6-3,5.9-3
		c2.4,0,4.5,1.2,5.9,3l24.3,34c1.6,2.2,1.8,5.1,0.5,7.5C256.1,163.7,253.6,165.2,250.9,165.2z M216.4,150.7h20.5l-10.2-14.3
		L216.4,150.7z"/>
</g>
</svg>
