<?xml version="1.0" encoding="utf-8"?>
<!-- Generator: Adobe Illustrator 19.0.0, SVG Export Plug-In . SVG Version: 6.00 Build 0)  -->
<svg version="1.1" id="Layer_1" xmlns="http://www.w3.org/2000/svg" xmlns:xlink="http://www.w3.org/1999/xlink" x="0px" y="0px"
	 viewBox="-243 245 512 512" style="enable-background:new -243 245 512 512;" xml:space="preserve">
<style type="text/css">
	.st0{fill:#FF1659;}
</style>
<g id="tool-computer-laptop-hour-worldwide">
	<path class="st0" d="M13,445c-30.9,0-56,25.1-56,56s25.1,56,56,56s56-25.1,56-56S43.9,445,13,445z M13,541c-22.1,0-40-17.9-40-40
		c0-22.1,17.9-40,40-40s40,17.9,40,40C53,523.1,35.1,541,13,541z"/>
	<path class="st0" d="M221,469c-14.6,0-27.2,9.9-30.9,24H133v-24c0-4.4-3.6-8-8-8h-15.4l11-10.9c1.5-1.5,2.3-3.6,2.3-5.7
		s-0.8-4.2-2.3-5.7l-45.3-45.2c-3-3.1-8.1-3.2-11.2-0.2c-0.1,0.1-0.1,0.1-0.2,0.2L53,404.4V389c0-4.4-3.6-8-8-8H21v-57.1
		c17.1-4.4,27.4-21.9,23-39s-21.9-27.4-39-23s-27.4,21.9-23,39c2.9,11.3,11.7,20.1,23,23V381h-24c-4.4,0-8,3.6-8,8v15.4l-10.9-10.9
		c-3-3.1-8.1-3.2-11.2-0.2c-0.1,0.1-0.1,0.1-0.2,0.2l-45.3,45.2c-1.5,1.5-2.3,3.6-2.3,5.7s0.9,4.1,2.3,5.7l11,10.9H-99
		c-4.4,0-8,3.6-8,8v24h-57.1c-4.4-17.1-21.9-27.4-39-23s-27.4,21.9-23,39s21.9,27.4,39,23c11.3-2.9,20.1-11.7,23-23h57.1v24
		c0,4.4,3.6,8,8,8h15.4l-11,10.9c-1.5,1.5-2.3,3.6-2.3,5.7c0,2.1,0.8,4.2,2.3,5.7l45.3,45.2c3,3.1,8.1,3.2,11.2,0.2
		c0.1-0.1,0.1-0.1,0.2-0.2l10.9-10.9V613c0,4.4,3.6,8,8,8H5v57.1c-17.1,4.4-27.4,21.9-23,39s21.9,27.4,39,23s27.4-21.9,23-39
		c-2.9-11.3-11.7-20.1-23-23V621h24c4.4,0,8-3.6,8-8v-15.4l10.9,10.9c3,3.1,8.1,3.2,11.2,0.2c0.1-0.1,0.1-0.1,0.2-0.2l45.3-45.2
		c1.5-1.5,2.3-3.6,2.3-5.7c0-2.1-0.9-4.1-2.3-5.7l-11-10.9H125c4.4,0,8-3.6,8-8v-24h57.1c4.4,17.1,21.9,27.3,39,22.9
		c17.1-4.4,27.3-21.9,22.9-39C248.3,478.8,235.6,469,221,469z M-195,517c-8.8,0-16-7.2-16-16s7.2-16,16-16s16,7.2,16,16
		S-186.2,517-195,517z M-3,293c0-8.8,7.2-16,16-16s16,7.2,16,16s-7.2,16-16,16S-3,301.8-3,293z M29,709c0,8.8-7.2,16-16,16
		s-16-7.2-16-16s7.2-16,16-16S29,700.2,29,709z M117,525H90.3c-4.4,0-8,3.5-8,8c0,2.1,0.8,4.2,2.4,5.7l18.9,18.9l-33.9,33.9
		l-18.9-18.9c-3.1-3.1-8.2-3.2-11.3,0c-1.5,1.5-2.4,3.6-2.4,5.7V605h-48v-26.7c0-4.4-3.5-8-8-8c-2.1,0-4.2,0.8-5.7,2.4l-18.9,18.9
		l-33.9-33.9l18.9-18.9c3.1-3.1,3.2-8.2,0-11.3c-1.5-1.5-3.6-2.4-5.7-2.4H-91v-48h26.7c4.4,0,8-3.5,8-8c0-2.1-0.8-4.2-2.4-5.7
		l-18.9-18.9l33.9-33.9l18.9,18.9c3.1,3.1,8.2,3.2,11.3,0c1.5-1.5,2.4-3.6,2.4-5.7V397h48v26.7c0,4.4,3.5,8,8,8
		c2.1,0,4.2-0.8,5.7-2.4l18.9-18.9l33.9,33.9l-18.9,18.9c-3.1,3.1-3.2,8.2,0,11.3c1.5,1.5,3.6,2.4,5.7,2.4H117V525z M221,517
		c-8.8,0-16-7.2-16-16s7.2-16,16-16s16,7.2,16,16S229.8,517,221,517z"/>
	<path class="st0" d="M-91,261h-112c-13.2,0-24,10.8-24,24v64c0,13.2,10.8,24,24,24h32v16h-16v16h80v-16h-16v-16h32
		c13.2,0,24-10.8,24-24v-64C-67,271.8-77.8,261-91,261z M-139,389h-16v-16h16V389z M-83,349c0,4.4-3.6,8-8,8h-112c-4.4,0-8-3.6-8-8
		v-8h128V349z M-83,325h-128v-40c0-4.4,3.6-8,8-8h112c4.4,0,8,3.6,8,8V325z"/>
	<path class="st0" d="M-51,285h16v16h-16V285z"/>
	<path class="st0" d="M-203,437h16v16h-16V437z"/>
	<path class="st0" d="M-203,549h16v16h-16V549z"/>
	<path class="st0" d="M245,693v-56c0-13.2-10.8-24-24-24h-96c-13.2,0-24,10.8-24,24v56c-4.4,0-8,3.6-8,8v16c0,13.2,10.8,24,24,24
		h112c13.2,0,24-10.8,24-24v-16C253,696.6,249.4,693,245,693z M117,637c0-4.4,3.6-8,8-8h96c4.4,0,8,3.6,8,8v56H117V637z M237,717
		c0,4.4-3.6,8-8,8H117c-4.4,0-8-3.6-8-8v-8h128V717z"/>
	<path class="st0" d="M61,701h16v16H61V701z"/>
	<path class="st0" d="M-51,701h16v16h-16V701z"/>
	<path class="st0" d="M213,549h16v16h-16V549z"/>
	<path class="st0" d="M213,581h16v16h-16V581z"/>
	<path class="st0" d="M165,261c-48.6,0-88,39.4-88,88s39.4,88,88,88s88-39.4,88-88S213.6,261,165,261z M165,421
		c-39.8,0-72-32.2-72-72s32.2-72,72-72s72,32.2,72,72C236.9,388.7,204.7,420.9,165,421z"/>
	<path class="st0" d="M-139,565c-48.6,0-88,39.4-88,88s39.4,88,88,88s88-39.4,88-88S-90.4,565-139,565z M-67.5,645h-31.7
		c-0.3-8.2-1.2-16.3-2.6-24.4c6.9-3.2,13.4-7.3,19.2-12.2C-74.2,619-69,631.6-67.5,645z M-93.8,597c-3.6,2.9-7.4,5.5-11.5,7.6
		c-1.8-6.4-4.2-12.6-7.1-18.5C-105.7,588.8-99.4,592.5-93.8,597z M-139,581c6.1,0,13.8,10.8,18.9,29.4c-12.4,3.4-25.4,3.4-37.8,0
		C-152.8,591.8-145.1,581-139,581z M-195.5,608.4c5.8,4.9,12.3,9,19.2,12.2c-1.4,8.1-2.2,16.2-2.6,24.4h-31.7
		C-209,631.6-203.8,619-195.5,608.4z M-210.5,661h31.7c0.3,8.2,1.2,16.3,2.6,24.4c-6.9,3.2-13.4,7.3-19.2,12.2
		C-203.8,687-209,674.4-210.5,661z M-184.2,709c3.6-2.9,7.4-5.5,11.5-7.6c1.8,6.4,4.2,12.6,7.1,18.5
		C-172.3,717.2-178.6,713.5-184.2,709z M-172.7,604.6c-4.1-2.1-7.9-4.7-11.5-7.6c5.6-4.5,11.9-8.2,18.6-10.9
		C-168.5,592-170.9,598.2-172.7,604.6z M-139,725c-6.1,0-13.8-10.8-18.9-29.4c12.4-3.4,25.4-3.4,37.8,0
		C-125.2,714.2-132.9,725-139,725z M-116.9,679.9c-14.5-3.8-29.7-3.8-44.2,0c-0.9-6.3-1.5-12.6-1.8-18.9h47.7
		C-115.4,667.3-116,673.6-116.9,679.9z M-162.8,645c0.2-6.3,0.8-12.6,1.8-18.9c14.5,3.8,29.7,3.8,44.2,0c0.9,6.3,1.5,12.6,1.8,18.9
		H-162.8z M-112.4,719.9c3-5.9,5.4-12.1,7.1-18.5c4.1,2.1,7.9,4.7,11.5,7.6C-99.4,713.5-105.7,717.2-112.4,719.9z M-82.5,697.6
		c-5.8-4.9-12.3-9-19.2-12.2c1.4-8.1,2.2-16.2,2.6-24.4h31.7C-69,674.4-74.2,687-82.5,697.6z"/>
	<path class="st0" d="M133,357v16h24v16h-32c-4.4,0-8-3.6-8-8v-32c0-4.4,3.6-8,8-8h16v-16h-24v-16h32c4.4,0,8,3.6,8,8v32
		c0,4.4-3.6,8-8,8H133z"/>
	<path class="st0" d="M213,309v80h-16v-32h-24c-4.4,0-8-3.6-8-8v-40h16v32h16v-32H213z"/>
	<path class="st0" d="M213,437h16v16h-16V437z"/>
	<path class="st0" d="M61,285h16v16H61V285z"/>
</g>
</svg>
