<?xml version="1.0" encoding="utf-8"?>
<!-- Generator: Adobe Illustrator 22.1.0, SVG Export Plug-In . SVG Version: 6.00 Build 0)  -->
<svg version="1.1" id="Capa_1" xmlns="http://www.w3.org/2000/svg" xmlns:xlink="http://www.w3.org/1999/xlink" x="0px" y="0px"
	 viewBox="0 0 512 512" style="enable-background:new 0 0 512 512;" xml:space="preserve">
<style type="text/css">
	.st0{fill:#FF1659;}
</style>
<g>
	<g>
		<path class="st0" d="M496,112H288V32c0-4.8-2.1-9.3-5.8-12.3c-3.6-3-8.5-4.4-13.2-3.4l-256,48C5.5,65.7,0,72.3,0,80v352
			c0,7.7,5.5,14.3,13.1,15.7l256,48c1,0.2,2,0.3,2.9,0.3c3.7,0,7.3-1.3,10.2-3.7c3.7-3,5.8-7.6,5.8-12.3v-80h208c8.8,0,16-7.2,16-16
			V128C512,119.2,504.8,112,496,112z M144,368c-44.1,0-80-43.1-80-96s35.9-96,80-96s80,43.1,80,96S188.1,368,144,368z M288,144
			h161.4l-98.3,76.4L288,180.4V144z M480,368H288V218.3l55.4,35.2c2.6,1.7,5.6,2.5,8.6,2.5c3.5,0,6.9-1.1,9.8-3.4L480,160.7V368z"/>
	</g>
</g>
<g>
	<g>
		<ellipse class="st0" cx="144" cy="272" rx="48" ry="64"/>
	</g>
</g>
<rect x="491" y="112" class="st0" width="20.5" height="24.5"/>
<rect x="491.5" y="375.3" class="st0" width="20.5" height="24.5"/>
</svg>
