<?xml version="1.0" encoding="utf-8"?>
<!-- Generator: Adobe Illustrator 19.0.0, SVG Export Plug-In . SVG Version: 6.00 Build 0)  -->
<svg version="1.1" id="Layer_1" xmlns="http://www.w3.org/2000/svg" xmlns:xlink="http://www.w3.org/1999/xlink" x="0px" y="0px"
	 viewBox="-243 245 512 512" style="enable-background:new -243 245 512 512;" xml:space="preserve">
<style type="text/css">
	.st0{fill:#FF1659;}
</style>
<g>
	<g>
		<g>
			<g>
				<g>
					<g>
						<path class="st0" d="M93.8,698.1L93.8,698.1l-22.4-0.2c-3.7,0-6.7-3-6.7-6.7v-22.1c0-1.8,0.7-3.5,2-4.7l47.6-47.6
							c-2.6-7.9-3.2-16.3-1.7-24.6c1.8-10,6.6-19.2,13.9-26.5c9.5-9.5,22-14.7,35.5-14.7s26,5.2,35.5,14.7s14.7,22,14.7,35.5
							c0,13.4-5.2,26-14.7,35.5c-9.7,9.7-22.6,14.7-35.5,14.7c-7.8,0-15.7-1.8-22.9-5.5l-0.1,0.1v7.6c0,3.7-3,6.7-6.7,6.7h-3.7v3.8
							c0,3.7-3,6.7-6.7,6.7h-3.9v3.8c0,3.7-3,6.7-6.7,6.7h-3.8v3.7c0,1.9-0.8,3.6-2.1,4.9l-7,6.5C97.1,697.5,95.4,698.1,93.8,698.1
							L93.8,698.1z M78.1,684.5l13,0.1l2.9-2.7v-7.6c0-1.8,0.7-3.5,2-4.8c1.2-1.2,3-2,4.7-2h3.8v-3.8c0-3.7,3-6.7,6.7-6.7h3.7v-3.8
							c0-3.7,3-6.7,6.7-6.7h3.7V643c0-1.8,0.7-3.5,2-4.7l5.7-5.7c2.3-2.3,5.8-2.6,8.5-0.8c14.5,9.7,34,7.7,46.3-4.6
							c6.9-6.9,10.8-16.2,10.8-26s-3.8-19-10.8-26s-16.2-10.8-26-10.8s-19,3.8-26,10.8c-10.7,10.7-13.8,26.7-7.7,40.5
							c1.1,2.5,0.5,5.5-1.4,7.4L78,671.8L78.1,684.5z"/>
					</g>
				</g>
				<g>
					<path class="st0" d="M169.6,612.4c-5.1,0-9.8-2-13.4-5.6c-3.6-3.6-5.6-8.4-5.6-13.4c0-5.1,2-9.8,5.6-13.4
						c7.4-7.4,19.4-7.4,26.8,0c7.4,7.4,7.4,19.4,0,26.8C179.4,610.5,174.6,612.4,169.6,612.4z M169.6,588c-1.4,0-2.8,0.5-3.9,1.6
						c-1.1,1.1-1.6,2.4-1.6,3.9s0.6,2.8,1.6,3.9c1.1,1.1,2.4,1.6,3.9,1.6s2.8-0.6,3.9-1.6c2.1-2.1,2.1-5.7,0-7.8
						C172.4,588.5,170.9,588,169.6,588L169.6,588z"/>
				</g>
			</g>
		</g>
		<g>
			<path class="st0" d="M137.3,746.1c-16.3,0-32-3.2-46.9-9.5c-14.3-6.1-27.2-14.8-38.3-25.8c-11-11.1-19.7-23.9-25.8-38.3
				c-6.3-14.8-9.5-30.6-9.5-46.9c0-16.3,3.2-32,9.5-46.9c6.1-14.3,14.8-27.2,25.8-38.3c11.1-11.1,23.9-19.7,38.3-25.8
				c14.8-6.3,30.6-9.5,46.9-9.5s32,3.2,46.9,9.5c14.3,6.1,27.2,14.8,38.3,25.8c11.1,11.1,19.7,23.9,25.8,38.3
				c6.3,14.8,9.5,30.6,9.5,46.9c0,16.3-3.2,32-9.5,46.9c-6.1,14.3-14.8,27.2-25.8,38.3c-11.1,11.1-23.9,19.7-38.3,25.8
				C169.3,742.9,153.6,746.1,137.3,746.1z M137.3,518.7c-59,0-107,48-107,107s48,107,107,107s107-48,107-107
				S196.3,518.7,137.3,518.7L137.3,518.7z"/>
		</g>
	</g>
	<g>
		<g>
			<g>
				<path class="st0" d="M54.1,710h-279.3c-3.7,0-6.7-3-6.7-6.7V262.6c0-3.7,3-6.7,6.7-6.7H74.5c3.7,0,6.7,3,6.7,6.7s-3,6.7-6.7,6.7
					h-293v427.2H54.1c3.7,0,6.7,3,6.7,6.7S57.8,710,54.1,710z"/>
			</g>
			<g>
				<path class="st0" d="M141.1,518.7c-3.7,0-6.7-3-6.7-6.7V332.3c0-3.7,3-6.7,6.7-6.7s6.7,3,6.7,6.7V512
					C147.8,515.7,144.8,518.7,141.1,518.7z"/>
			</g>
			<g>
				<path class="st0" d="M141.1,339H74.5c-3.7,0-6.7-3-6.7-6.7v-69.7c0-2.8,1.7-5.2,4.2-6.2c2.6-1,5.5-0.4,7.4,1.6l66.4,69.7
					c1.9,2,2.4,4.8,1.3,7.3C146.1,337.4,143.8,339,141.1,339z M81.3,325.6h44l-44-46.2V325.6z"/>
			</g>
		</g>
		<g>
			<g>
				<g>
					<g>
						<path class="st0" d="M-180.6,409.2c-3.7,0-6.7-3-6.7-6.7v-43c0-3.7,3-6.7,6.7-6.7s6.7,3,6.7,6.7v43
							C-173.9,406.2-176.9,409.2-180.6,409.2z"/>
					</g>
					<g>
						<path class="st0" d="M-128.3,409.1c-12.4,0-22.4-10.1-22.4-22.4v-11.4c0-12.4,10.1-22.4,22.4-22.4s22.4,10.1,22.4,22.4v11.4
							C-105.9,399-116,409.1-128.3,409.1z M-128.3,366.3c-5,0-9,4-9,9v11.4c0,5,4,9,9,9s9-4,9-9v-11.4
							C-119.3,370.3-123.4,366.3-128.3,366.3z"/>
					</g>
					<g>
						<g>
							<path class="st0" d="M-76.1,409.2c-3.7,0-6.7-3-6.7-6.7v-43c0-3.7,3-6.7,6.7-6.7s6.7,3,6.7,6.7v43
								C-69.3,406.2-72.3,409.2-76.1,409.2z"/>
						</g>
					</g>
					<g>
						<g>
							<path class="st0" d="M-23.8,409.1c-12.4,0-22.4-10.1-22.4-22.4v-11.4c0-12.4,10.1-22.4,22.4-22.4S-1.4,363-1.4,375.3v11.4
								C-1.3,399-11.4,409.1-23.8,409.1z M-23.8,366.3c-5,0-9,4-9,9v11.4c0,5,4,9,9,9s9-4,9-9v-11.4
								C-14.8,370.3-18.8,366.3-23.8,366.3z"/>
						</g>
					</g>
					<g>
						<g>
							<path class="st0" d="M28.5,409.2c-3.7,0-6.7-3-6.7-6.7v-43c0-3.7,3-6.7,6.7-6.7s6.7,3,6.7,6.7v43
								C35.2,406.2,32.2,409.2,28.5,409.2z"/>
						</g>
					</g>
					<g>
						<path class="st0" d="M80.8,409.1c-12.4,0-22.4-10.1-22.4-22.4v-11.4c0-12.4,10.1-22.4,22.4-22.4c12.4,0,22.4,10.1,22.4,22.4
							v11.4C103.3,399,93.1,409.1,80.8,409.1z M80.8,366.3c-5,0-9,4-9,9v11.4c0,5,4,9,9,9s9-4,9-9v-11.4
							C89.8,370.3,85.8,366.3,80.8,366.3z"/>
					</g>
				</g>
				<g>
					<g>
						<path class="st0" d="M-180.6,499.5c-3.7,0-6.7-3-6.7-6.7v-43c0-3.7,3-6.7,6.7-6.7s6.7,3,6.7,6.7v43
							C-173.9,496.5-176.9,499.5-180.6,499.5z"/>
					</g>
					<g>
						<path class="st0" d="M-128.3,499.4c-12.4,0-22.4-10.1-22.4-22.4v-11.4c0-12.4,10.1-22.4,22.4-22.4s22.4,10.1,22.4,22.4V477
							C-105.9,489.4-116,499.4-128.3,499.4z M-128.3,456.6c-5,0-9,4-9,9V477c0,5,4,9,9,9s9-4,9-9v-11.4
							C-119.3,460.6-123.4,456.6-128.3,456.6z"/>
					</g>
					<g>
						<g>
							<path class="st0" d="M-76.1,499.5c-3.7,0-6.7-3-6.7-6.7v-43c0-3.7,3-6.7,6.7-6.7s6.7,3,6.7,6.7v43
								C-69.3,496.5-72.3,499.5-76.1,499.5z"/>
						</g>
					</g>
					<g>
						<g>
							<path class="st0" d="M-23.8,499.4c-12.4,0-22.4-10.1-22.4-22.4v-11.4c0-12.4,10.1-22.4,22.4-22.4s22.4,10.1,22.4,22.4V477
								C-1.3,489.4-11.4,499.4-23.8,499.4z M-23.8,456.6c-5,0-9,4-9,9V477c0,5,4,9,9,9s9-4,9-9v-11.4
								C-14.8,460.6-18.8,456.6-23.8,456.6z"/>
						</g>
					</g>
					<g>
						<g>
							<path class="st0" d="M28.5,499.5c-3.7,0-6.7-3-6.7-6.7v-43c0-3.7,3-6.7,6.7-6.7s6.7,3,6.7,6.7v43
								C35.2,496.5,32.2,499.5,28.5,499.5z"/>
						</g>
					</g>
					<g>
						<path class="st0" d="M80.8,499.4c-12.4,0-22.4-10.1-22.4-22.4v-11.4c0-12.4,10.1-22.4,22.4-22.4c12.4,0,22.4,10.1,22.4,22.4
							V477C103.3,489.4,93.1,499.4,80.8,499.4z M80.8,456.6c-5,0-9,4-9,9V477c0,5,4,9,9,9s9-4,9-9v-11.4
							C89.8,460.6,85.8,456.6,80.8,456.6z"/>
					</g>
				</g>
				<g>
					<g>
						<path class="st0" d="M-180.6,589.8c-3.7,0-6.7-3-6.7-6.7v-43c0-3.7,3-6.7,6.7-6.7s6.7,3,6.7,6.7v43
							C-173.9,586.8-176.9,589.8-180.6,589.8z"/>
					</g>
					<g>
						<path class="st0" d="M-128.3,589.7c-12.4,0-22.4-10.1-22.4-22.4v-11.4c0-12.4,10.1-22.4,22.4-22.4s22.4,10.1,22.4,22.4v11.4
							C-105.9,579.7-116,589.7-128.3,589.7z M-128.3,546.9c-5,0-9,4-9,9v11.4c0,5,4,9,9,9s9-4,9-9v-11.4
							C-119.3,550.9-123.4,546.9-128.3,546.9z"/>
					</g>
					<g>
						<g>
							<path class="st0" d="M-76.1,589.8c-3.7,0-6.7-3-6.7-6.7v-43c0-3.7,3-6.7,6.7-6.7s6.7,3,6.7,6.7v43
								C-69.3,586.8-72.3,589.8-76.1,589.8z"/>
						</g>
					</g>
					<g>
						<g>
							<path class="st0" d="M-23.8,589.7c-12.4,0-22.4-10.1-22.4-22.4v-11.4c0-12.4,10.1-22.4,22.4-22.4s22.4,10.1,22.4,22.4v11.4
								C-1.3,579.7-11.4,589.7-23.8,589.7z M-23.8,546.9c-5,0-9,4-9,9v11.4c0,5,4,9,9,9s9-4,9-9v-11.4
								C-14.8,550.9-18.8,546.9-23.8,546.9z"/>
						</g>
					</g>
				</g>
			</g>
			<g>
				<g>
					<path class="st0" d="M-180.6,680.1c-3.7,0-6.7-3-6.7-6.7v-43c0-3.7,3-6.7,6.7-6.7s6.7,3,6.7,6.7v43
						C-173.9,677.1-176.9,680.1-180.6,680.1z"/>
				</g>
				<g>
					<path class="st0" d="M-128.3,680c-12.4,0-22.4-10.1-22.4-22.4v-11.4c0-12.4,10.1-22.4,22.4-22.4s22.4,10.1,22.4,22.4v11.4
						C-105.9,670-116,680-128.3,680z M-128.3,637.2c-5,0-9,4-9,9v11.4c0,5,4,9,9,9s9-4,9-9v-11.4
						C-119.3,641.2-123.4,637.2-128.3,637.2z"/>
				</g>
				<g>
					<g>
						<path class="st0" d="M-76.1,680.1c-3.7,0-6.7-3-6.7-6.7v-43c0-3.7,3-6.7,6.7-6.7s6.7,3,6.7,6.7v43
							C-69.3,677.1-72.3,680.1-76.1,680.1z"/>
					</g>
				</g>
				<g>
					<g>
						<path class="st0" d="M-23.8,680c-12.4,0-22.4-10.1-22.4-22.4v-11.4c0-12.4,10.1-22.4,22.4-22.4s22.4,10.1,22.4,22.4v11.4
							C-1.3,670-11.4,680-23.8,680z M-23.8,637.2c-5,0-9,4-9,9v11.4c0,5,4,9,9,9s9-4,9-9v-11.4C-14.8,641.2-18.8,637.2-23.8,637.2z"
							/>
					</g>
				</g>
			</g>
		</g>
	</g>
</g>
</svg>
