<?xml version="1.0" encoding="utf-8"?>
<!-- Generator: Adobe Illustrator 22.1.0, SVG Export Plug-In . SVG Version: 6.00 Build 0)  -->
<svg version="1.1" id="Layer_1" xmlns="http://www.w3.org/2000/svg" xmlns:xlink="http://www.w3.org/1999/xlink" x="0px" y="0px"
	 viewBox="0 0 496 496" style="enable-background:new 0 0 496 496;" xml:space="preserve">
<style type="text/css">
	.st0{fill:#FF1659;}
</style>
<path class="st0" d="M311.6,64.4l11.3-11.3c-28.1-28.1-73.8-28.1-101.8,0l11.3,11.3C254.2,42.6,289.8,42.6,311.6,64.4z"/>
<path class="st0" d="M416,144c0-17.6-14.4-32-32-32v16c8.8,0,16,7.2,16,16s-7.2,16-16,16v16C401.6,176,416,161.6,416,144z"/>
<path class="st0" d="M456,128h-10.1c-7.1-27.6-32.1-48-61.9-48c-3.6,0-7.2,0.3-10.7,0.9C362.7,34.2,320.6,0,272,0
	c-33.6,0-64.7,16-84.2,43.2c-6.4-2.1-13-3.2-19.8-3.2c-26.1,0-49.7,16.2-59.3,40.1C80.4,81.5,57,101.5,50.1,128H40
	c-22.1,0-40,17.9-40,40v240c0,22.1,17.9,40,40,40h104v32h-32v16h272v-16h-32v-32h104c22.1,0,40-17.9,40-40V168
	C496,145.9,478.1,128,456,128z M40,144h8c0,35.3,28.7,64,64,64h48v-16h-48c-26.5,0-48-21.5-48-48s21.5-48,48-48l8.2,0.4l1.8-6
	c6-20.2,24.9-34.4,46-34.4c6.8,0,13.3,1.4,19.6,4.2l6.3,2.8l3.7-5.9C213.9,31.4,241.7,16,272,16c43.6,0,81,32.6,87,75.8l1.3,9.4
	l9-2.9c4.8-1.5,9.7-2.3,14.6-2.3c26.5,0,48,21.5,48,48s-21.5,48-48,48h-48v16h48c35.3,0,64-28.7,64-64h8c13.2,0,24,10.8,24,24v216
	H16V168C16,154.8,26.8,144,40,144z M336,480H160v-32h176V480z M456,432H40c-13.2,0-24-10.8-24-24v-8h464v8
	C480,421.2,469.2,432,456,432z"/>
<path class="st0" d="M256,321.5V280h-16v41.5c-9.3,3.3-16,12.1-16,22.5c0,13.2,10.8,24,24,24s24-10.8,24-24
	C272,333.6,265.3,324.8,256,321.5z M248,352c-4.4,0-8-3.6-8-8s3.6-8,8-8s8,3.6,8,8S252.4,352,248,352z"/>
<path class="st0" d="M240,152h16v112h-16V152z"/>
<path class="st0" d="M320,184h-16v128h81.5c3.3,9.3,12.1,16,22.5,16c13.2,0,24-10.8,24-24s-10.8-24-24-24c-10.4,0-19.2,6.7-22.5,16
	H320V184z M408,296c4.4,0,8,3.6,8,8s-3.6,8-8,8s-8-3.6-8-8S403.6,296,408,296z"/>
<path class="st0" d="M304,152h16v16h-16V152z"/>
<path class="st0" d="M88,328c10.4,0,19.2-6.7,22.5-16H192v-88h-16v72h-65.5c-3.3-9.3-12.1-16-22.5-16c-13.2,0-24,10.8-24,24
	S74.8,328,88,328z M88,296c4.4,0,8,3.6,8,8s-3.6,8-8,8s-8-3.6-8-8S83.6,296,88,296z"/>
<path class="st0" d="M176,152h16v56h-16V152z"/>
<polygon class="st0" points="0,165.2 37.2,128.1 0,128.1 "/>
<polygon class="st0" points="458.8,128 496,165.3 496,128 "/>
<polygon class="st0" points="39.1,448 0,410.7 0,448 "/>
<polygon class="st0" points="497.5,408.9 456.6,448.1 497.5,448.1 "/>
</svg>
