<?xml version="1.0" encoding="utf-8"?>
<!-- Generator: Adobe Illustrator 19.0.0, SVG Export Plug-In . SVG Version: 6.00 Build 0)  -->
<svg version="1.1" id="Layer_1" xmlns="http://www.w3.org/2000/svg" xmlns:xlink="http://www.w3.org/1999/xlink" x="0px" y="0px"
	 viewBox="-243 245 512 512" style="enable-background:new -243 245 512 512;" xml:space="preserve">
<style type="text/css">
	.st0{fill:#FF1659;}
</style>
<g id="device">
	<path class="st0" d="M250.2,360c-1.5-1.9-3.8-2.9-6.2-3h-7v-88c0-4.4-3.6-8-8-8H69c-4.4,0-8,3.6-8,8v88h-7c-2.4,0-4.7,1.1-6.2,3
		s-2.1,4.4-1.6,6.7l7,32c0.8,3.7,4.1,6.3,7.8,6.3h176c3.8,0,7-2.6,7.8-6.3l7-32C252.3,364.3,251.7,361.8,250.2,360z M77,277h144v80
		h-56c-4.4,0-8,3.6-8,8h-16c0-4.4-3.6-8-8-8H77V277z M230.6,389H67.4L64,373h61c0,4.4,3.6,8,8,8h32c4.4,0,8-3.6,8-8h61L230.6,389z"
		/>
	<path class="st0" d="M-75,581h-128c-13.2,0-24,10.8-24,24v80c0,13.2,10.8,24,24,24h30.3l-5.4,22.1c-0.6,2.4-0.1,4.9,1.4,6.9
		c1.5,1.9,3.9,3.1,6.3,3h62.6c2.5,0,4.8-1.1,6.3-3s2.1-4.5,1.4-6.9l-5.4-22.1H-75c13.2,0,24-10.8,24-24v-80
		C-51,591.8-61.8,581-75,581z M-160.1,725l3.9-16h34.4l3.9,16H-160.1z M-67,685c0,4.4-3.6,8-8,8h-128c-4.4,0-8-3.6-8-8v-8h144V685z
		 M-67,661h-144v-56c0-4.4,3.6-8,8-8h128c4.4,0,8,3.6,8,8V661z"/>
	<path class="st0" d="M229,565h-64c-13.2,0-24,10.8-24,24v128c0,13.2,10.8,24,24,24h64c13.2,0,24-10.8,24-24V589
		C253,575.8,242.2,565,229,565z M213,581c0,4.4-3.6,8-8,8h-16c-4.4,0-8-3.6-8-8H213z M237,717c0,4.4-3.6,8-8,8h-64c-4.4,0-8-3.6-8-8
		V589c0-4.4,3.6-8,8-8c0,13.2,10.8,24,24,24h16c13.2,0,24-10.8,24-24c4.4,0,8,3.6,8,8V717z"/>
	<path class="st0" d="M-107,261h-96c-13.2,0-24,10.8-24,24v128c0,13.2,10.8,24,24,24h96c13.2,0,24-10.8,24-24V285
		C-83,271.8-93.8,261-107,261z M-99,413c0,4.4-3.6,8-8,8h-96c-4.4,0-8-3.6-8-8V285c0-4.4,3.6-8,8-8h96c4.4,0,8,3.6,8,8V413z"/>
	<rect x="-163" y="389" class="st0" width="16" height="16"/>
	<path class="st0" d="M94,477.8l-19.2-2.4l11.9-15.3c2.5-3.2,2.2-7.7-0.7-10.6L64.4,428c-2.8-2.9-7.4-3.2-10.6-0.7l-15.3,11.9
		L36.2,420c-0.5-4-3.9-7-8-7H-2.2c-4.1,0-7.5,3-8,7l-2.4,19.2l-15.3-11.9c-3.2-2.5-7.7-2.1-10.6,0.7L-60,449.6
		c-2.9,2.8-3.2,7.4-0.7,10.6l11.9,15.3l-19.2,2.4c-4,0.5-7,3.9-7,8v30.4c0,4.1,3,7.5,7,8l19.2,2.4L-60.7,542
		c-2.5,3.2-2.2,7.7,0.7,10.6l21.5,21.5c2.8,2.9,7.4,3.2,10.6,0.7l15.3-11.9l2.4,19.2c0.5,4,3.9,7,8,7h30.4c4.1,0,7.5-3,8-7l2.4-19.2
		l15.3,11.9c3.2,2.5,7.7,2.1,10.6-0.7L86,552.4c2.9-2.8,3.2-7.4,0.7-10.6l-11.9-15.3l19.2-2.4c4-0.5,7-3.9,7-8v-30.4
		C101,481.7,98,478.3,94,477.8z M85,509.2l-19,2.4c-3,0.4-5.6,2.4-6.6,5.4c-0.7,1.9-1.5,3.8-2.4,5.7c-1.4,2.7-1,6,0.9,8.4l11.8,15.1
		l-11.6,11.6L43,546c-2.4-1.9-5.7-2.3-8.4-0.9c-1.9,0.9-3.8,1.7-5.8,2.4c-2.9,1-4.9,3.5-5.3,6.6l-2.4,19H4.8l-2.4-19
		c-0.4-3-2.4-5.6-5.3-6.6c-2-0.7-3.9-1.5-5.8-2.4c-2.7-1.4-6-1-8.4,0.9l-15.1,11.8l-11.6-11.6L-32,531c1.9-2.4,2.3-5.7,0.9-8.4
		c-0.9-1.8-1.7-3.8-2.4-5.7c-1-2.9-3.5-5-6.6-5.4l-19-2.4v-16.3l19-2.4c3-0.4,5.6-2.4,6.6-5.4c0.7-1.9,1.5-3.8,2.4-5.7
		c1.4-2.7,1-6-0.9-8.4l-11.8-15.1l11.6-11.6L-17,456c2.4,1.9,5.7,2.3,8.4,0.9c1.8-0.9,3.8-1.7,5.7-2.4c2.9-1,5-3.5,5.4-6.6l2.4-19
		h16.3l2.4,19c0.4,3,2.4,5.6,5.4,6.6c1.9,0.7,3.8,1.5,5.7,2.4c2.7,1.4,6,1,8.4-0.9l15.1-11.8l11.6,11.6L58,471
		c-1.9,2.4-2.3,5.7-0.9,8.4c0.9,1.8,1.7,3.8,2.4,5.7c1,2.9,3.5,5,6.6,5.4l19,2.4L85,509.2z"/>
	<path class="st0" d="M53,501c0-22.1-17.9-40-40-40s-40,17.9-40,40c0,22.1,17.9,40,40,40S53,523.1,53,501z M13,525
		c-13.3,0-24-10.7-24-24c0-13.3,10.7-24,24-24s24,10.7,24,24C37,514.3,26.3,525,13,525z"/>
	<path class="st0" d="M117,485v16h32c4.4,0,8-3.6,8-8v-72h-16v64H117z"/>
	<path class="st0" d="M-155,501v64h16v-56h48v-16h-56C-151.4,493-155,496.6-155,501z"/>
	<path class="st0" d="M5,397h16v-48c0-4.4-3.6-8-8-8h-80v16H5V397z"/>
	<path class="st0" d="M21,605H5v64c0,4.4,3.6,8,8,8h112v-16H21V605z"/>
</g>
</svg>
