<?xml version="1.0" encoding="utf-8"?>
<!-- Generator: Adobe Illustrator 19.0.0, SVG Export Plug-In . SVG Version: 6.00 Build 0)  -->
<svg version="1.1" id="_x33_0" xmlns="http://www.w3.org/2000/svg" xmlns:xlink="http://www.w3.org/1999/xlink" x="0px" y="0px"
	 viewBox="-243 245 512 512" style="enable-background:new -243 245 512 512;" xml:space="preserve">
<style type="text/css">
	.st0{fill:#FF1659;}
</style>
<g>
	<path class="st0" d="M10.5,510l2.5,0.8l2.5-0.8c1-0.3,101.5-34.3,101.5-135v-50l-9.2,1.4c-51.1,7.9-88.8-28.8-89.1-29.1l-5.7-5.6
		l-5.6,5.6c-0.4,0.4-37.7,37-89.1,29.1L-91,325v50C-91,475.7,9.5,509.7,10.5,510z M-75,343.3c43,3.1,75.4-19.3,88-29.6
		c12.6,10.4,45.1,32.7,88,29.6V375c0,81.5-73,113.2-88,118.9c-14.5-5.6-88-38.1-88-118.9V343.3z"/>
	<path class="st0" d="M74.7,380l-11.3-11.3L-3,435.2l-26.3-26.3L-40.7,420L-3,457.8L74.7,380z"/>
	<path class="st0" d="M213,399h-48v80h-51.7c20.3-24.9,35.7-58.6,35.7-103.6v-90.2l-11.1,4.6C72.2,317,21.2,260.3,19,257.8l-6-6.8
		l-6,6.8c-2.1,2.4-53.2,59.3-118.9,32.1l-11.1-4.6v90.2c0,45,15.4,78.7,35.7,103.6H-139v-80h-48c-26.5,0-48,21.5-48,48v256
		c0,26.5,21.5,48,48,48h400c26.5,0,48-21.5,48-48V447C261,420.5,239.5,399,213,399z M181,415h32c17.6,0,32,14.4,32,32
		c0,17.6-14.4,32-32,32h-32V415z M-107,308.7c57.4,17.1,103.9-19.3,120-34.3c16,15,62.6,51.4,120,34.2v66.9
		C133,488.2,29.3,522,13,526.8c-15.5-4.6-120-39.7-120-151.3V308.7z M-187,415h32v64h-32c-17.6,0-32-14.4-32-32
		C-219,429.5-204.6,415-187,415z M213,735h-400c-17.6,0-32-14.4-32-32V482.8c8.5,7.6,19.7,12.3,32,12.3h114.6
		c37.7,35.7,82.7,47.6,83.5,47.8l1.9,0.5l1.9-0.5c0.8-0.2,45.8-12,83.5-47.8H213c12.3,0,23.5-4.7,32-12.3V703
		C245,720.6,230.6,735,213,735L213,735z"/>
	<path class="st0" d="M-155,703h16v16h-16V703z"/>
	<path class="st0" d="M-123,703h16v16h-16V703z"/>
	<path class="st0" d="M-91,703h16v16h-16V703z"/>
	<path class="st0" d="M-59,703h16v16h-16V703z"/>
	<path class="st0" d="M-187,703h16v16h-16V703z"/>
	<path class="st0" d="M197,655h-80c-17.6,0-32,14.4-32,32s14.4,32,32,32h80c17.6,0,32-14.4,32-32S214.6,655,197,655z M197,703h-80
		c-8.8,0-16-7.2-16-16s7.2-16,16-16h80c8.8,0,16,7.2,16,16S205.8,703,197,703z"/>
	<path class="st0" d="M197,575h-80c-17.6,0-32,14.4-32,32s14.4,32,32,32h80c17.6,0,32-14.4,32-32S214.6,575,197,575z M197,623h-80
		c-8.8,0-16-7.2-16-16s7.2-16,16-16h80c8.8,0,16,7.2,16,16S205.8,623,197,623z"/>
	<path class="st0" d="M85,543h144v16H85V543z"/>
	<path class="st0" d="M213,511h16v16h-16V511z"/>
	<path class="st0" d="M181,511h16v16h-16V511z"/>
	<path class="st0" d="M149,511h16v16h-16V511z"/>
	<path class="st0" d="M117,511h16v16h-16V511z"/>
	<path class="st0" d="M85,511h16v16H85V511z"/>
	<path class="st0" d="M-32.8,630.1c3.7-9.7,5.8-20.1,5.8-31.1c0-48.5-39.5-88-88-88s-88,39.5-88,88s39.5,88,88,88
		c31,0,58.2-16.1,73.9-40.3l25.8,40.3H53v-16H-6.6L-32.8,630.1z M-135.9,623c-1.9-7.5-3.1-15.5-3.1-24s1.2-16.5,3.1-24h41.8
		c1.9,7.5,3.1,15.5,3.1,24s-1.2,16.5-3.1,24H-135.9z M-99.5,639c-5,11.9-11.1,21.3-15.6,27.2c-4.4-6-10.5-15.4-15.5-27.2H-99.5z
		 M-187,599c0-8.4,1.5-16.5,4.2-24h30.4c-1.6,7.5-2.6,15.5-2.6,24s1,16.5,2.6,24h-30.4C-185.5,615.5-187,607.5-187,599z M-130.6,559
		c5-11.9,11.1-21.3,15.5-27.2c4.5,6,10.6,15.3,15.6,27.2H-130.6z M-77.6,575h30.4c2.7,7.5,4.2,15.6,4.2,24s-1.5,16.5-4.2,24h-30.4
		c1.6-7.5,2.6-15.5,2.6-24S-76,582.5-77.6,575z M-55.2,559h-27.1c-4.3-12-9.9-22.1-14.9-29.7C-79.8,533.8-64.9,544.5-55.2,559z
		 M-133,529.5c-5,7.6-10.5,17.6-14.8,29.6h-27C-165.1,544.5-150.3,533.8-133,529.5z M-174.8,639h27c4.3,12,9.8,22,14.8,29.6
		C-150.3,664.3-165.1,653.5-174.8,639z M-97.2,668.8c5-7.6,10.6-17.7,14.9-29.7h27.1C-64.9,653.5-79.8,664.3-97.2,668.8z"/>
	<path class="st0" d="M5,639h16v16H5V639z"/>
	<path class="st0" d="M37,639h16v16H37V639z"/>
</g>
</svg>
