<?xml version="1.0" encoding="utf-8"?>
<!-- Generator: Adobe Illustrator 23.1.1, SVG Export Plug-In . SVG Version: 6.00 Build 0)  -->
<svg version="1.1" id="Layer_1" xmlns="http://www.w3.org/2000/svg" xmlns:xlink="http://www.w3.org/1999/xlink" x="0px" y="0px"
	 viewBox="0 0 122 32" style="enable-background:new 0 0 122 32;" xml:space="preserve">
<style type="text/css">
	.st0{fill:#FF0E5E;}
</style>
<g>
	<path d="M6.5,26c-2.5,0-4-0.4-4.8-1c-0.7-0.5-0.5-1.9,0.3-3.2c0.8,0.4,2.2,1.1,4.4,1.1c1.4,0,2.3-0.3,2.3-1.2
		c0-0.9-0.8-1.1-2.8-1.5c-2.5-0.5-4.3-1.6-4.3-4.3c0-2.6,2.3-4.4,5.7-4.4c2.3,0,3.9,0.5,4.9,0.9c-0.3,2.2-0.9,2.6-1.5,2.6
		c-0.9,0-1.7-0.5-3.4-0.5c-1.3,0-2,0.4-2,1.2c0,0.9,0.9,1.1,2.3,1.3c3.1,0.6,4.9,1.7,4.9,4.4C12.4,23.9,10.9,26,6.5,26 M22.8,25.8
		v-9c0-1.7-1.1-2.2-2.4-2.2c-1.3,0-2.5,0.5-2.5,2.2v9h-3.7V17c0-4.4,3.1-5.5,5.6-5.5c2.5,0,3.9,0.7,4.8,1.9c1-1.2,2.2-1.9,4.7-1.9
		c2.5,0,5.7,1,5.7,5.5v8.7c-0.6,0.1-1.1,0.2-1.6,0.2c-1.7,0-2.2-0.5-2.2-1.3v-7.7c0-1.7-1.1-2.2-2.4-2.2c-1.3,0-2.5,0.5-2.5,2.2v9
		H22.8z M43.2,26c-4.3,0-6.1-1.3-6.1-4.4c0-3.1,2.5-4.3,6.3-4.3c1.2,0,1.8,0,2.4,0v-0.6c0-1.6-1.4-2.2-2.6-2.2c-1.4,0-2.3,0.5-3.3,1
		c-0.8,0.3-1.7,0.2-2.3-2.2c1.3-1.1,3.3-2,6.1-2c3.3,0,5.7,1.8,5.7,5.3v8.8C48.4,25.8,46.1,26,43.2,26 M43.5,19.9
		c-2.5,0-2.9,0.7-2.9,1.7c0,0.9,0.5,1.5,2.8,1.5c0.9,0,1.7,0,2.3-0.1v-3.1C45.3,19.9,44.4,19.9,43.5,19.9 M51.7,17.2
		c0-4.3,2.7-5.5,5.5-5.5c1.4,0,2,0.1,2,0.1c0,2.1-0.2,3.1-1.1,3.1h-0.9c-1.3,0-1.9,0.7-1.9,2.6v8.4h-3.7V17.2z M67.9,23.5
		c0,1.5-0.1,2.5-3,2.5c-2.6,0-4.4-1-4.4-4.6v-11c0-1.3,1.2-1.7,3.7-2.2v3.6H68c0.1,2.7-0.3,3-1.2,3h-2.5v6.1c0,1.4,0.4,2,1.8,2
		c0.5,0,1.4,0,1.8-0.1C67.9,23,67.9,23.3,67.9,23.5 M69.8,11.2C70,7.3,72.8,6,75.7,6c1.4,0,2,0.1,2.6,0.1c0,2.1-0.2,3-1.1,3h-1.3
		c-1.6,0-2.4,0.7-2.4,2.5v0.2h3.8c0.2,2.7-0.3,3-1.3,3h-2.6v11h-3.7V11.2z M78.2,17.2c0-4.3,2.8-5.5,5.8-5.5c1.4,0,2.1,0.1,2.1,0.1
		c0,2.1-0.2,3.1-1.1,3.1h-1c-1.5,0-2.1,0.8-2.1,2.6v8.4h-3.7V17.2z M93.5,26c-4.4,0-7.2-2.6-7.2-7.2c0-4.6,3-7.3,6.7-7.3
		c5,0,6.2,3.5,6.2,7.2c0,0.3,0,0.7,0,1.1h-9.2c0.1,1.8,1.4,3,3.8,3c2.2,0,3.3-0.8,4.1-1.5c0.5,0.8,0.9,1.4,0.9,1.9
		c0,0.5-0.2,1-0.6,1.4C97.3,25.4,95.8,26,93.5,26 M90.1,17.3h5.8c-0.1-1.4-0.6-2.8-2.8-2.8C91.2,14.5,90.1,15.9,90.1,17.3
		 M113.4,25.7c-0.6,0.1-1.1,0.2-1.6,0.2c-1.7,0-2.2-0.5-2.2-1.3v-7.7c0-1.7-1.2-2.2-2.4-2.2c-1.3,0-2.4,0.5-2.4,2.2v9h-3.7V17
		c0-4.3,3.1-5.5,6.1-5.5c3,0,6.2,1,6.2,5.5V25.7z"/>
	<rect x="115.8" y="20.8" class="st0" width="5" height="4.9"/>
</g>
</svg>
